<svg width="32" height="32" viewBox="0 0 32 32" fill="none" xmlns="http://www.w3.org/2000/svg">
<circle cx="16" cy="16" r="15" stroke="#DADADA"/>
<g clip-path="url(#clip0_5778_8551)">
<path d="M18.2217 9.44078L18.9417 8.14178C18.9509 8.12514 18.9567 8.10684 18.9589 8.08794C18.961 8.06904 18.9594 8.0499 18.9542 8.03162C18.9489 8.01334 18.9401 7.99627 18.9282 7.98139C18.9164 7.96652 18.9017 7.95412 18.8851 7.94491C18.8684 7.9357 18.8501 7.92986 18.8312 7.92772C18.8123 7.92558 18.7932 7.92719 18.7749 7.93245C18.7566 7.93771 18.7396 7.94651 18.7247 7.95837C18.7098 7.97022 18.6974 7.98489 18.6882 8.00153L17.9607 9.31403C17.3397 9.0417 16.6689 8.9011 15.9908 8.9011C15.3127 8.9011 14.642 9.0417 14.021 9.31403L13.2935 8.00153C13.2749 7.96772 13.2436 7.94268 13.2065 7.93192C13.1695 7.92116 13.1296 7.92556 13.0958 7.94416C13.062 7.96276 13.037 7.99403 13.0262 8.03109C13.0154 8.06815 13.0199 8.10797 13.0385 8.14178L13.7585 9.44078C13.0736 9.77892 12.495 10.299 12.086 10.944C11.6769 11.589 11.4533 12.3341 11.4395 13.0978H20.5422C20.5282 12.334 20.3043 11.5887 19.895 10.9437C19.4857 10.2987 18.9068 9.77872 18.2217 9.44078ZM13.8905 11.432C13.8152 11.432 13.7417 11.4097 13.6791 11.3679C13.6166 11.3261 13.5678 11.2667 13.5391 11.1971C13.5103 11.1276 13.5028 11.0511 13.5176 10.9773C13.5323 10.9035 13.5686 10.8358 13.6218 10.7826C13.6751 10.7295 13.7429 10.6933 13.8167 10.6787C13.8905 10.6642 13.967 10.6718 14.0365 10.7007C14.106 10.7296 14.1653 10.7784 14.207 10.8411C14.2487 10.9037 14.2708 10.9773 14.2707 11.0525C14.2705 11.1533 14.2304 11.2498 14.1591 11.3209C14.0878 11.3921 13.9912 11.432 13.8905 11.432ZM18.092 11.432C18.0167 11.432 17.9432 11.4097 17.8806 11.3679C17.8181 11.3261 17.7693 11.2667 17.7406 11.1971C17.7118 11.1276 17.7043 11.0511 17.7191 10.9773C17.7338 10.9035 17.7701 10.8358 17.8233 10.7826C17.8766 10.7295 17.9444 10.6933 18.0182 10.6787C18.092 10.6642 18.1685 10.6718 18.238 10.7007C18.3075 10.7296 18.3668 10.7784 18.4085 10.8411C18.4502 10.9037 18.4723 10.9773 18.4722 11.0525C18.472 11.1533 18.4319 11.2498 18.3606 11.3209C18.2893 11.3921 18.1927 11.432 18.092 11.432ZM11.438 20.0548C11.4378 20.1996 11.4661 20.343 11.5215 20.4768C11.5768 20.6106 11.658 20.7322 11.7605 20.8345C11.8629 20.9369 11.9845 21.018 12.1184 21.0733C12.2522 21.1285 12.3956 21.1568 12.5405 21.1565H13.2702V23.4065C13.2702 23.6772 13.3777 23.9367 13.5691 24.128C13.7604 24.3194 14.02 24.4269 14.2906 24.4269C14.5612 24.4269 14.8207 24.3194 15.0121 24.128C15.2034 23.9367 15.311 23.6772 15.311 23.4065V21.1565H16.6715V23.4065C16.6715 23.6771 16.7789 23.9365 16.9702 24.1278C17.1615 24.3191 17.4209 24.4265 17.6915 24.4265C17.962 24.4265 18.2214 24.3191 18.4127 24.1278C18.604 23.9365 18.7115 23.6771 18.7115 23.4065V21.1565H19.4419C19.5866 21.1566 19.7298 21.1282 19.8634 21.0729C19.997 21.0176 20.1184 20.9365 20.2207 20.8343C20.323 20.732 20.404 20.6106 20.4593 20.477C20.5146 20.3434 20.543 20.2001 20.5429 20.0555V13.4578H11.438V20.0548ZM10.0377 13.2823C9.90369 13.2823 9.77099 13.3087 9.64719 13.36C9.52339 13.4113 9.41091 13.4865 9.31619 13.5813C9.22146 13.6761 9.14634 13.7886 9.09513 13.9125C9.04391 14.0363 9.0176 14.169 9.0177 14.303V18.5548C9.0177 18.6887 9.04408 18.8214 9.09534 18.9451C9.1466 19.0689 9.22174 19.1813 9.31645 19.276C9.41117 19.3708 9.52361 19.4459 9.64736 19.4971C9.77112 19.5484 9.90375 19.5748 10.0377 19.5748C10.1716 19.5748 10.3043 19.5484 10.428 19.4971C10.5518 19.4459 10.6642 19.3708 10.7589 19.276C10.8537 19.1813 10.9288 19.0689 10.9801 18.9451C11.0313 18.8214 11.0577 18.6887 11.0577 18.5548V14.303C11.0577 14.1691 11.0313 14.0364 10.9801 13.9127C10.9288 13.7889 10.8537 13.6765 10.7589 13.5818C10.6642 13.4871 10.5518 13.4119 10.428 13.3607C10.3043 13.3094 10.1716 13.283 10.0377 13.283M21.9417 13.283C21.8077 13.283 21.675 13.3094 21.5512 13.3607C21.4274 13.4121 21.3149 13.4873 21.2202 13.5821C21.1255 13.6768 21.0503 13.7894 20.9991 13.9132C20.9479 14.0371 20.9216 14.1698 20.9217 14.3038V18.5555C20.9217 18.6895 20.9481 18.8221 20.9993 18.9459C21.0506 19.0696 21.1257 19.1821 21.2205 19.2768C21.3152 19.3715 21.4276 19.4466 21.5514 19.4979C21.6751 19.5492 21.8078 19.5755 21.9417 19.5755C22.0756 19.5755 22.2083 19.5492 22.332 19.4979C22.4558 19.4466 22.5682 19.3715 22.663 19.2768C22.7577 19.1821 22.8328 19.0696 22.8841 18.9459C22.9353 18.8221 22.9617 18.6895 22.9617 18.5555V14.303C22.9617 14.0325 22.8542 13.7731 22.663 13.5818C22.4717 13.3905 22.2122 13.283 21.9417 13.283Z" fill="black"/>
</g>
<defs>
<clipPath id="clip0_5778_8551">
<rect width="18" height="18" fill="white" transform="translate(6.99048 7.17651)"/>
</clipPath>
</defs>
</svg>
