<svg width="32" height="32" viewBox="0 0 32 32" fill="none" xmlns="http://www.w3.org/2000/svg">
<circle cx="16" cy="16" r="15" stroke="#DADADA"/>
<path d="M19.7875 22.3864C19.0525 23.0989 18.25 22.9864 17.4775 22.6489C16.66 22.3039 15.91 22.2889 15.0475 22.6489C13.9675 23.1139 13.3975 22.9789 12.7525 22.3864C9.0925 18.6139 9.6325 12.8689 13.7875 12.6589C14.8 12.7114 15.505 13.2139 16.0975 13.2589C16.9825 13.0789 17.83 12.5614 18.775 12.6289C19.9075 12.7189 20.7625 13.1689 21.325 13.9789C18.985 15.3814 19.54 18.4639 21.685 19.3264C21.2575 20.4514 20.7025 21.5689 19.78 22.3939L19.7875 22.3864ZM16.0225 12.6139C15.91 10.9414 17.2675 9.56139 18.8275 9.42639C19.045 11.3614 17.0725 12.8014 16.0225 12.6139Z" fill="black"/>
</svg>
