<svg width="32" height="32" viewBox="0 0 32 32" fill="none" xmlns="http://www.w3.org/2000/svg">
<circle cx="16" cy="16" r="15" stroke="#DADADA"/>
<path d="M19.5243 21.4706H12.4757C11.5016 21.4706 10.7059 20.6748 10.7059 19.7008V12.6521C10.7059 11.6781 11.5016 10.8823 12.4757 10.8823H19.5243C20.4984 10.8823 21.2941 11.6781 21.2941 12.6521V19.7008C21.2941 20.6792 20.5027 21.4706 19.5243 21.4706Z" fill="black"/>
<path d="M14.0802 18.1006C14.5933 18.6137 15.276 18.8964 16.0021 18.8964C16.7283 18.8964 17.4067 18.6137 17.9241 18.1006C18.4372 17.5875 18.7199 16.9048 18.7199 16.1787C18.7199 15.4525 18.4372 14.7698 17.9241 14.2567C17.411 13.7436 16.7283 13.4609 16.0021 13.4609C15.276 13.4609 14.5933 13.7436 14.0802 14.2567C13.5671 14.7698 13.2844 15.4525 13.2844 16.1787C13.2844 16.9048 13.5671 17.5875 14.0802 18.1006Z" stroke="white"/>
<path d="M19.2496 13.3716C19.5378 13.3716 19.7714 13.138 19.7714 12.8498C19.7714 12.5616 19.5378 12.328 19.2496 12.328C18.9614 12.328 18.7278 12.5616 18.7278 12.8498C18.7278 13.138 18.9614 13.3716 19.2496 13.3716Z" fill="white"/>
</svg>
