<svg width="32" height="32" viewBox="0 0 32 32" fill="none" xmlns="http://www.w3.org/2000/svg">
<circle cx="16" cy="16" r="15" stroke="#DADADA"/>
<path d="M12.613 14.1216H10.0317V22.3529H12.613V14.1216Z" fill="black"/>
<path d="M19.5953 13.8837C19.5001 13.8718 19.399 13.8658 19.2979 13.8599C17.8526 13.8004 17.0378 14.6568 16.7524 15.0256C16.675 15.1267 16.6394 15.1862 16.6394 15.1862V14.0859H14.1711V22.3172H16.6394H16.7524C16.7524 21.4786 16.7524 20.646 16.7524 19.8074C16.7524 19.3554 16.7524 18.9034 16.7524 18.4513C16.7524 17.8923 16.7107 17.2975 16.9903 16.786C17.2282 16.3578 17.6564 16.1437 18.1381 16.1437C19.5655 16.1437 19.5953 17.4343 19.5953 17.5533C19.5953 17.5592 19.5953 17.5652 19.5953 17.5652V22.3529H22.1765V16.9823C22.1765 15.1445 21.2427 14.0621 19.5953 13.8837Z" fill="black"/>
<path d="M11.3223 12.9975C12.1501 12.9975 12.8211 12.3265 12.8211 11.4988C12.8211 10.671 12.1501 10 11.3223 10C10.4946 10 9.82355 10.671 9.82355 11.4988C9.82355 12.3265 10.4946 12.9975 11.3223 12.9975Z" fill="black"/>
</svg>
